{"title":"Justice.League.Gods.and.Monsters.2015.BRRip.480p.x264-VYTO","uid":12165178,"size":293696352,"categoryP":"video","categoryS":"movies","magnet":"?xt=urn:btih:1e7ed8e7674c0f5711c817ad5e20e3a3e5bb628f&amp;dn=Justice.League.Gods.and.Monsters.2015.BRRip.480p.x264-VYTO&amp;tr=udp%3A%2F%2Ftracker.openbittorrent.com%3A80&amp;tr=udp%3A%2F%2Fopen.demonii.com%3A1337&amp;tr=udp%3A%2F%2Ftracker.coppersurfer.tk%3A6969&amp;tr=udp%3A%2F%2Fexodus.desync.com%3A6969","seeders":2,"leechers":5,"uploader":"ValidusVyto","files":7,"time":1438011070,"description":"____    ____ ____    ____ .___________.  ______   \n     /   /      /   / |           | /  __    \n    /   /      /   /  `---|  |----`|  |  |  | \n        /     _    _/       |  |     |  |  |  | \n       /        |  |         |  |     |  `--'  | \n    __/         |__|         |__|      ______/  \n                                                  \nPresenting Small Encodes with quality for years!\n                                                                                                   \n                                                                                                   \n\nJustice.League.Gods.and.Monsters.2015.BRRip.480p.x264-VYTO\n\n\nGenre: Animation, Action, Fantasy &lt;a href=&quot;\nhttp://www.imdb.com/title/tt4324302/&quot; rel=&quot;nofollow&quot; target=&quot;_NEW&quot;&gt;\nhttp://www.imdb.com/title/tt4324302/&lt;/a&gt;\n\n\nGeneral\nFormat                         : MPEG-4\nFile size                      : 276 MiB\nDuration                       : 1h 15mn\nOverall bit rate               : 510 Kbps\n\nVideo\nFormat                         : AVC\nBit rate                       : 467 Kbps\nWidth                          : 720 pixels\nHeight                         : 400 pixels\nDisplay aspect ratio           : 16:9\nFrame rate mode                : Constant\nFrame rate                     : 23.976 fps\nBit depth                      : 8 bits\nStream size                    : 253 MiB (92%)\nWriting library                : x264 core 146 r2538 121396c\n\nAudio\nFormat                         : AAC\nBit rate mode                  : Variable\nBit rate                       : 39.9 Kbps\nChannel(s)                     : 2 channels\nChannel positions              : Front: L R\nSampling rate                  : 48.0 KHz\nStream size                    : 21.6 MiB (8%)\nLanguage                       : English\n\nSubtitle                       : Yes (English)\nSource                         : 720p.BluRay.DTS.x264-EPiC\n\n\nScreenshots:\n &lt;a href=&quot;\nhttp://ititli.com/qL&quot; rel=&quot;nofollow&quot; target=&quot;_NEW&quot;&gt;\nhttp://ititli.com/qL&lt;/a&gt; &lt;a href=&quot;\nhttp://ititli.com/qd&quot; rel=&quot;nofollow&quot; target=&quot;_NEW&quot;&gt;\nhttp://ititli.com/qd&lt;/a&gt; &lt;a href=&quot;\nhttp://ititli.com/q0&quot; rel=&quot;nofollow&quot; target=&quot;_NEW&quot;&gt;\nhttp://ititli.com/q0&lt;/a&gt; &lt;a href=&quot;\nhttp://ititli.com/qA&quot; rel=&quot;nofollow&quot; target=&quot;_NEW&quot;&gt;\nhttp://ititli.com/qA&lt;/a&gt; &lt;a href=&quot;\nhttp://ititli.com/ql&quot; rel=&quot;nofollow&quot; target=&quot;_NEW&quot;&gt;\nhttp://ititli.com/ql&lt;/a&gt; &lt;a href=&quot;\nhttp://ititli.com/qm&quot; rel=&quot;nofollow&quot; target=&quot;_NEW&quot;&gt;\nhttp://ititli.com/qm&lt;/a&gt; &lt;a href=&quot;\nhttp://ititli.com/qx&quot; rel=&quot;nofollow&quot; target=&quot;_NEW&quot;&gt;\nhttp://ititli.com/qx&lt;/a&gt; &lt;a href=&quot;\nhttp://ititli.com/q7&quot; rel=&quot;nofollow&quot; target=&quot;_NEW&quot;&gt;\nhttp://ititli.com/q7&lt;/a&gt; &lt;a href=&quot;\nhttp://ititli.com/qC&quot; rel=&quot;nofollow&quot; target=&quot;_NEW&quot;&gt;\nhttp://ititli.com/qC&lt;/a&gt; &lt;a href=&quot;\nhttp://ititli.com/qF&quot; rel=&quot;nofollow&quot; target=&quot;_NEW&quot;&gt;\nhttp://ititli.com/qF&lt;/a&gt; &lt;a href=&quot;\nhttp://ititli.com/qJ&quot; rel=&quot;nofollow&quot; target=&quot;_NEW&quot;&gt;\nhttp://ititli.com/qJ&lt;/a&gt; &lt;a href=&quot;\nhttp://ititli.com/q5&quot; rel=&quot;nofollow&quot; target=&quot;_NEW&quot;&gt;\nhttp://ititli.com/q5&lt;/a&gt;\n\n----------------------------------------------------------------------------------------------------\n\n\nEncoder Notes: Looking For Early Access To Anything You Can Provide DVDScr, R5, DVDR, BluRay, Direct\nAudio, Music Releases and Seedboxes. If You Got anything to offer please contact us.\n\nSupport us by donating BC - 1FgwdzPsd1y25Gea8wP1qni35uGCtmkRCD","torrent":{"xt":"urn:btih:1e7ed8e7674c0f5711c817ad5e20e3a3e5bb628f","amp;dn":"Justice.League.Gods.and.Monsters.2015.BRRip.480p.x264-VYTO","amp;tr":["udp%3A%2F%2Ftracker.openbittorrent.com%3A80","udp%3A%2F%2Fopen.demonii.com%3A1337","udp%3A%2F%2Ftracker.coppersurfer.tk%3A6969","udp%3A%2F%2Fexodus.desync.com%3A6969"],"infoHash":"1e7ed8e7674c0f5711c817ad5e20e3a3e5bb628f","infoHashBuffer":{"type":"Buffer","data":[30,126,216,231,103,76,15,87,17,200,23,173,94,32,227,163,229,187,98,143]},"announce":[],"urlList":[]}}